<?xml version="1.0" standalone="no"?>
<!DOCTYPE svg PUBLIC "-//W3C//DTD SVG 20010904//EN"
 "http://www.w3.org/TR/2001/REC-SVG-20010904/DTD/svg10.dtd">
<svg version="1.0" xmlns="http://www.w3.org/2000/svg"
 width="280.000000pt" height="280.000000pt" viewBox="0 0 280.000000 280.000000"
 preserveAspectRatio="xMidYMid meet">

<g transform="translate(0.000000,280.000000) scale(0.100000,-0.100000)"
fill="#000000" stroke="none">
<path d="M670 2130 c-139 -22 -269 -90 -376 -196 -58 -57 -81 -90 -118 -165
-48 -101 -76 -212 -76 -304 0 -189 104 -407 247 -519 63 -50 173 -112 173 -98
0 4 -13 15 -30 23 -16 8 -53 34 -83 59 -296 249 -316 692 -43 962 35 35 89 78
119 96 220 133 522 120 717 -29 73 -56 79 -54 17 5 -67 62 -184 127 -272 150
-77 20 -205 27 -275 16z"/>
<path d="M876 1638 c-64 -9 -123 -51 -153 -107 -29 -56 -31 -147 -4 -207 44
-96 175 -141 276 -95 39 17 95 72 95 92 0 17 -22 9 -42 -16 -28 -35 -70 -55
-118 -55 -81 0 -127 84 -117 212 9 101 36 145 99 154 47 7 93 -25 121 -83 12
-27 27 -48 32 -48 6 0 11 30 13 66 2 50 -1 69 -13 79 -18 15 -116 19 -189 8z"/>
<path d="M400 1624 c-84 -37 -123 -100 -124 -199 -1 -96 27 -148 104 -188 50
-27 61 -29 131 -24 45 3 95 13 123 25 l46 21 0 63 c0 37 -5 69 -12 76 -14 14
-148 17 -148 3 0 -5 14 -14 30 -20 28 -9 30 -13 30 -65 0 -64 -13 -76 -78 -76
-47 0 -87 34 -102 89 -17 60 -12 171 9 218 48 105 166 89 216 -29 25 -60 36
-47 33 40 l-3 77 -110 2 c-81 2 -119 -1 -145 -13z"/>
<path d="M1122 1628 c-8 -8 -12 -58 -12 -157 0 -174 10 -203 80 -238 80 -41
186 -27 240 31 24 26 25 34 30 184 l5 157 30 15 30 15 -33 3 c-58 6 -62 -5
-62 -160 0 -195 -17 -228 -115 -228 -35 0 -52 6 -70 24 -31 31 -37 66 -33 211
3 113 4 120 26 131 41 20 36 24 -34 24 -41 0 -75 -5 -82 -12z"/>
<path d="M609 1101 c-20 -20 -29 -39 -29 -61 0 -40 47 -90 85 -90 37 0 65 17
59 35 -4 9 -1 22 6 30 11 13 7 15 -21 15 -23 0 -29 -3 -21 -9 21 -13 11 -55
-15 -59 -55 -8 -87 94 -43 138 27 27 44 25 68 -5 25 -31 30 -32 25 -1 -9 44
-72 48 -114 7z"/>
<path d="M750 1120 c0 -5 5 -10 11 -10 7 0 10 -25 8 -78 -4 -75 -3 -77 20 -79
17 -1 20 2 12 10 -6 6 -11 46 -11 89 0 71 -2 78 -20 78 -11 0 -20 -4 -20 -10z"/>
<path d="M1567 1119 c-26 -15 -46 -68 -40 -102 6 -33 47 -67 79 -67 25 0 70
37 59 48 -4 4 -11 -1 -16 -11 -14 -25 -64 -22 -83 5 -19 27 -20 58 -4 92 17
39 47 44 75 12 l23 -27 0 24 c0 34 -54 49 -93 26z"/>
<path d="M1800 1120 c0 -5 5 -10 11 -10 7 0 10 -25 8 -78 -4 -75 -3 -77 20
-79 17 -1 20 2 12 10 -6 6 -11 46 -11 89 0 71 -2 78 -20 78 -11 0 -20 -4 -20
-10z"/>
<path d="M2050 1120 c0 -5 5 -10 10 -10 6 0 10 -9 10 -21 0 -15 -4 -19 -16
-15 -29 11 -64 -21 -64 -57 0 -50 13 -62 70 -62 27 -1 50 3 50 7 0 4 -4 8 -10
8 -6 0 -10 33 -10 80 0 73 -2 80 -20 80 -11 0 -20 -4 -20 -10z m20 -110 c0
-41 -14 -53 -42 -38 -24 12 -24 73 -1 87 26 14 43 -5 43 -49z"/>
<path d="M2396 1123 c-11 -11 -6 -23 9 -23 8 0 15 4 15 9 0 13 -16 22 -24 14z"/>
<path d="M845 1067 c-11 -9 -15 -19 -10 -27 6 -10 10 -8 16 8 5 14 14 20 24
16 25 -10 17 -34 -14 -45 -33 -12 -47 -37 -31 -53 6 -6 31 -12 56 -12 33 -1
42 2 35 9 -6 6 -11 30 -11 54 0 32 -5 45 -19 53 -25 13 -24 13 -46 -3z m45
-72 c0 -18 -5 -25 -20 -25 -25 0 -26 25 -2 39 23 14 22 14 22 -14z"/>
<path d="M958 1063 c-20 -23 -13 -40 23 -58 33 -17 37 -33 13 -42 -10 -4 -22
1 -29 10 -15 21 -25 22 -25 3 0 -20 57 -31 75 -16 24 20 17 39 -20 61 -19 12
-35 25 -35 29 0 16 30 19 45 4 13 -14 15 -14 15 0 0 9 -4 16 -9 16 -5 0 -16 2
-23 5 -8 3 -21 -2 -30 -12z"/>
<path d="M1068 1069 c-20 -11 -24 -44 -8 -54 8 -5 8 -11 0 -20 -8 -10 -8 -15
0 -20 8 -5 6 -13 -6 -26 -36 -40 40 -69 86 -31 31 25 17 51 -31 58 -43 7 -53
24 -14 24 24 0 51 31 37 44 -3 4 0 11 8 16 12 8 11 10 -7 10 -12 0 -27 2 -35
5 -7 2 -21 0 -30 -6z m42 -35 c0 -15 -6 -24 -15 -24 -21 0 -30 27 -15 45 16
19 30 10 30 -21z m19 -83 c12 -8 12 -12 2 -25 -15 -18 -39 -20 -60 -7 -12 8
-12 12 -2 25 15 18 39 20 60 7z"/>
<path d="M1197 1069 c-27 -16 -39 -56 -26 -82 23 -42 57 -49 89 -17 28 28 25
64 -6 89 -30 24 -32 24 -57 10z m53 -59 c0 -41 -22 -59 -46 -39 -20 17 -18 76
3 88 26 14 43 -5 43 -49z"/>
<path d="M1696 1061 c-11 -12 -13 -21 -7 -25 5 -4 15 3 21 14 9 17 14 19 26 9
21 -17 18 -24 -21 -42 -23 -11 -35 -24 -35 -37 0 -26 27 -37 51 -22 11 7 20 8
24 2 15 -24 22 -6 17 43 -6 72 -40 98 -76 58z m52 -63 c-2 -15 -11 -24 -25
-26 -27 -4 -29 5 -6 30 22 24 35 23 31 -4z"/>
<path d="M1890 1060 c-11 -11 -20 -31 -20 -45 0 -51 62 -84 91 -48 13 15 12
15 -8 5 -25 -14 -49 -7 -57 15 -7 18 2 36 14 28 15 -9 60 6 60 21 0 13 -37 44
-52 44 -5 0 -17 -9 -28 -20z m58 -26 c-3 -3 -19 -4 -34 -2 -27 3 -27 4 -9 21
16 17 19 17 33 3 9 -9 13 -18 10 -22z"/>
<path d="M2142 1064 c-45 -31 -19 -114 36 -114 25 0 52 35 52 67 0 25 -32 63
-53 63 -7 0 -23 -7 -35 -16z m63 -63 c-9 -37 -22 -48 -43 -35 -24 15 -27 67
-6 89 17 17 19 16 37 -6 12 -15 16 -31 12 -48z"/>
<path d="M2301 1071 c-7 -4 -24 -6 -39 -3 -22 4 -25 2 -14 -9 15 -16 16 -81 1
-96 -7 -7 -4 -10 13 -10 22 0 24 3 23 51 0 44 3 51 20 51 17 0 20 -7 20 -50
-1 -42 2 -51 17 -51 12 0 16 6 13 14 -3 7 -5 31 -5 52 0 41 -24 66 -49 51z"/>
<path d="M2478 1069 c-10 -5 -18 -18 -18 -27 0 -14 4 -13 18 6 14 18 20 20 30
10 19 -19 15 -27 -23 -42 -38 -16 -44 -36 -19 -57 12 -10 20 -10 34 -1 12 7
21 8 25 2 3 -6 14 -10 23 -10 12 0 13 3 4 12 -7 7 -12 31 -12 55 0 32 -5 45
-19 53 -23 12 -22 12 -43 -1z m34 -91 c-6 -6 -19 -7 -29 -4 -16 7 -16 9 7 28
23 19 25 19 28 3 2 -9 -1 -22 -6 -27z"/>
<path d="M2631 1071 c-7 -4 -24 -6 -39 -3 -22 4 -25 2 -14 -9 15 -16 16 -81 1
-96 -8 -8 -5 -11 13 -10 22 2 24 6 23 52 0 43 3 50 20 50 17 0 20 -7 20 -51
-1 -48 1 -51 23 -51 17 0 20 3 13 10 -6 6 -11 30 -11 54 0 44 -23 70 -49 54z"/>
<path d="M1286 1062 c6 -4 19 -32 29 -62 l18 -55 21 45 20 45 14 -37 c8 -21
17 -38 21 -38 3 0 16 25 28 55 21 54 21 55 1 55 -10 0 -17 -4 -13 -10 7 -12
-5 -60 -15 -60 -5 0 -11 13 -15 30 -10 43 -22 45 -36 5 -19 -52 -34 -42 -32
23 1 6 -11 12 -26 12 -14 0 -21 -4 -15 -8z"/>
<path d="M2389 1061 c10 -6 12 -23 9 -58 -4 -42 -2 -49 14 -49 12 0 17 5 13
14 -3 7 -5 34 -5 58 0 39 -3 44 -22 44 -17 0 -19 -3 -9 -9z"/>
<path d="M580 888 c0 -4 5 -8 10 -8 6 0 10 -28 10 -64 0 -56 3 -67 22 -80 31
-22 64 -20 88 4 16 16 20 33 20 80 0 33 4 60 10 60 6 0 10 4 10 9 0 4 -13 8
-30 7 -26 -1 -45 -16 -20 -16 6 0 10 -28 10 -65 0 -54 -3 -66 -20 -75 -14 -8
-26 -8 -40 0 -17 9 -20 21 -20 75 0 37 4 65 10 65 6 0 10 4 10 8 0 4 -16 8
-35 8 -19 0 -35 -4 -35 -8z"/>
<path d="M907 894 c-8 -8 1 -24 14 -24 5 0 9 7 9 15 0 15 -12 20 -23 9z"/>
<path d="M1406 893 c-11 -11 -6 -23 9 -23 8 0 15 4 15 9 0 13 -16 22 -24 14z"/>
<path d="M1463 855 c-6 -14 -7 -25 -2 -25 5 0 9 -23 9 -50 0 -53 19 -75 43
-51 8 8 7 11 -6 11 -25 0 -25 87 1 93 16 4 16 5 0 6 -11 1 -18 9 -18 21 0 27
-13 25 -27 -5z"/>
<path d="M806 841 c-3 -4 -18 -7 -33 -5 -16 2 -22 1 -15 -2 15 -7 16 -86 1
-101 -8 -8 -5 -11 13 -10 22 2 24 6 23 52 0 43 3 50 20 50 17 0 20 -7 20 -50
-1 -46 1 -50 23 -52 18 -1 21 2 13 10 -6 6 -11 29 -11 52 0 41 -13 65 -36 65
-7 0 -15 -4 -18 -9z"/>
<path d="M1034 832 c3 -9 -1 -30 -8 -47 l-12 -30 -12 34 c-7 18 -9 37 -6 42 3
5 -6 9 -19 9 l-24 0 26 -55 c14 -30 28 -55 31 -54 3 0 16 24 31 54 24 51 24
54 7 59 -14 3 -18 0 -14 -12z"/>
<path d="M1096 834 c-22 -22 -30 -59 -17 -83 15 -27 58 -38 77 -20 11 12 9 14
-19 14 -26 0 -33 4 -35 23 -3 19 1 22 32 22 29 0 36 4 36 20 0 18 -26 40 -49
40 -5 0 -17 -7 -25 -16z m54 -25 c0 -5 -11 -9 -25 -9 -26 0 -35 25 -12 33 13
5 37 -10 37 -24z"/>
<path d="M1246 841 c-3 -5 -18 -6 -33 -3 -23 4 -26 2 -15 -9 14 -15 16 -89 2
-89 -5 0 -10 -4 -10 -8 0 -5 14 -9 31 -10 24 -1 29 2 20 11 -6 6 -11 28 -11
48 0 38 13 58 25 39 7 -11 25 -4 25 10 0 11 -28 21 -34 11z"/>
<path d="M1302 838 c-22 -22 -14 -48 19 -60 19 -6 29 -16 27 -26 -4 -22 -23
-25 -41 -7 -19 19 -24 19 -24 0 0 -8 13 -17 29 -20 58 -13 83 47 28 68 -31 12
-39 30 -18 43 6 4 17 -1 24 -11 8 -10 17 -15 21 -11 9 8 -24 36 -42 36 -6 0
-16 -5 -23 -12z"/>
<path d="M899 831 c10 -6 12 -23 9 -57 -4 -46 -3 -49 20 -51 17 -1 21 2 13 10
-6 6 -11 33 -11 59 0 43 -2 48 -22 48 -17 0 -19 -3 -9 -9z"/>
<path d="M1398 828 c15 -15 16 -80 1 -95 -8 -8 -4 -11 15 -10 17 1 24 7 21 15
-3 8 -5 34 -5 58 0 39 -3 44 -22 44 -17 0 -19 -3 -10 -12z"/>
<path d="M1537 832 c6 -4 20 -30 31 -58 23 -58 15 -89 -20 -78 -14 4 -19 2
-16 -7 5 -16 20 -21 35 -11 7 4 28 42 47 85 27 59 32 77 21 77 -8 0 -14 -3
-13 -7 3 -15 -14 -63 -22 -63 -10 0 -30 57 -23 64 4 3 -7 6 -23 6 -16 0 -24
-4 -17 -8z"/>
</g>
</svg>
