<?xml version="1.0" standalone="no"?>
<!DOCTYPE svg PUBLIC "-//W3C//DTD SVG 20010904//EN"
 "http://www.w3.org/TR/2001/REC-SVG-20010904/DTD/svg10.dtd">
<svg version="1.0" xmlns="http://www.w3.org/2000/svg"
 width="350.000000pt" height="321.000000pt" viewBox="0 0 350.000000 321.000000"
 preserveAspectRatio="xMidYMid meet">

<g transform="translate(0.000000,321.000000) scale(0.100000,-0.100000)"
fill="#000000" stroke="none">
<path d="M777 2770 c-80 -70 -40 -182 71 -197 68 -9 142 48 142 109 0 71 -54
118 -134 118 -36 0 -52 -6 -79 -30z"/>
<path d="M750 2090 l0 -370 110 0 110 0 0 370 0 370 -110 0 -110 0 0 -370z"/>
<path d="M1162 2168 l3 -293 27 -55 c41 -83 102 -120 198 -120 68 0 134 26
189 76 47 42 49 43 55 21 3 -12 6 -34 6 -49 l0 -28 93 0 92 0 0 370 0 370
-112 0 -113 0 0 -246 c0 -142 -4 -253 -10 -264 -25 -47 -122 -76 -170 -50 -34
18 -40 65 -40 316 l0 244 -111 0 -110 0 3 -292z"/>
<path d="M750 1415 c0 -50 4 -85 10 -85 6 0 10 35 10 85 0 50 -4 85 -10 85 -6
0 -10 -35 -10 -85z"/>
<path d="M820 1416 c0 -99 18 -117 22 -23 l3 62 35 -62 c48 -87 60 -83 60 22
0 100 -18 115 -22 19 l-3 -67 -35 63 c-50 91 -60 89 -60 -14z"/>
<path d="M970 1490 c0 -5 11 -10 25 -10 24 0 25 -2 25 -75 0 -43 4 -75 10 -75
6 0 10 32 10 75 0 73 1 75 25 75 14 0 25 5 25 10 0 6 -27 10 -60 10 -33 0 -60
-4 -60 -10z"/>
<path d="M1127 1493 c-4 -3 -7 -42 -7 -85 l0 -78 50 0 c28 0 50 5 50 10 0 6
-18 10 -40 10 -38 0 -40 2 -40 30 0 28 3 30 36 30 21 0 33 4 29 10 -3 6 -20
10 -36 10 -26 0 -30 3 -27 23 2 18 10 23 41 25 20 2 35 7 32 13 -7 10 -78 12
-88 2z"/>
<path d="M1260 1415 c0 -50 4 -85 10 -85 6 0 10 16 10 35 0 23 5 35 14 35 8 0
23 -16 35 -35 11 -19 25 -35 31 -35 14 0 13 7 -7 36 -15 24 -15 27 1 55 27 46
1 79 -65 79 l-29 0 0 -85z m80 50 c17 -20 -3 -45 -36 -45 -20 0 -24 5 -24 30
0 25 4 30 24 30 13 0 29 -7 36 -15z"/>
<path d="M1407 1494 c-11 -11 -8 -164 3 -164 5 0 10 30 12 66 l3 66 38 -66
c21 -36 42 -66 47 -66 6 0 10 36 10 85 0 50 -4 85 -10 85 -6 0 -10 -29 -10
-67 l0 -68 -31 55 c-34 62 -52 84 -62 74z"/>
<path d="M1576 1423 c-29 -87 -30 -93 -16 -93 5 0 12 11 16 25 5 20 12 25 39
25 27 0 34 -5 39 -25 6 -22 27 -37 25 -17 -2 25 -56 156 -66 159 -6 2 -22 -28
-37 -74z m42 -21 c-28 -5 -30 0 -16 39 l11 33 12 -34 c11 -32 10 -35 -7 -38z"/>
<path d="M1680 1490 c0 -5 11 -10 25 -10 24 0 25 -2 25 -75 0 -43 4 -75 10
-75 6 0 10 32 10 75 0 73 1 75 25 75 14 0 25 5 25 10 0 6 -27 10 -60 10 -33 0
-60 -4 -60 -10z"/>
<path d="M1830 1415 c0 -50 4 -85 10 -85 6 0 10 35 10 85 0 50 -4 85 -10 85
-6 0 -10 -35 -10 -85z"/>
<path d="M1915 1475 c-48 -47 -18 -145 44 -145 63 0 94 88 50 144 -26 33 -62
34 -94 1z m79 -17 c9 -12 16 -32 16 -43 0 -29 -28 -65 -50 -65 -22 0 -50 36
-50 65 0 29 28 65 50 65 10 0 26 -10 34 -22z"/>
<path d="M2070 1416 c0 -99 18 -117 22 -23 l3 62 35 -62 c47 -86 60 -83 60 16
0 99 -18 118 -22 24 l-3 -68 -36 64 c-50 92 -59 90 -59 -13z"/>
<path d="M2267 1493 c-14 -24 -48 -145 -44 -156 3 -7 9 0 16 16 8 21 17 27 39
27 22 0 32 -7 42 -27 24 -50 22 -2 -3 71 -22 65 -39 88 -50 69z m27 -55 c9
-35 8 -38 -14 -38 -11 0 -20 3 -20 8 0 19 13 52 20 52 4 0 10 -10 14 -22z"/>
<path d="M2378 1494 c-5 -4 -8 -43 -8 -86 l0 -78 45 0 c25 0 45 5 45 10 0 6
-16 10 -35 10 l-34 0 -3 76 c-2 42 -6 72 -10 68z"/>
<path d="M758 1204 c-5 -4 -8 -33 -8 -63 0 -69 19 -101 60 -101 41 0 60 32 60
102 0 31 -4 60 -10 63 -6 4 -10 -18 -10 -57 0 -66 -10 -88 -41 -88 -26 0 -33
17 -39 88 -3 35 -8 60 -12 56z"/>
<path d="M918 1199 c-9 -25 -3 -144 7 -146 6 -2 10 21 10 52 0 30 2 55 5 55 3
0 20 -27 38 -60 18 -33 37 -60 42 -60 6 0 10 38 10 86 0 54 -4 83 -10 79 -5
-3 -10 -32 -10 -63 l-1 -57 -22 39 c-35 61 -63 92 -69 75z"/>
<path d="M1087 1203 c-11 -11 -8 -163 3 -163 6 0 10 35 10 85 0 85 -1 91 -13
78z"/>
<path d="M1235 1197 c-4 -9 -15 -43 -25 -75 l-18 -57 -17 60 c-17 59 -30 83
-40 74 -9 -10 47 -160 59 -156 13 4 58 136 53 157 -3 12 -5 12 -12 -3z"/>
<path d="M1287 1203 c-4 -3 -7 -42 -7 -85 l0 -78 50 0 c28 0 50 5 50 10 0 6
-18 10 -40 10 -38 0 -40 2 -40 30 0 27 3 30 30 30 17 0 30 5 30 10 0 6 -14 10
-31 10 -26 0 -30 3 -27 23 2 18 10 23 41 25 20 2 35 7 32 13 -7 10 -78 12 -88
2z"/>
<path d="M1420 1126 c0 -51 4 -86 10 -86 6 0 10 16 10 35 0 46 18 45 49 -3 14
-21 26 -31 29 -24 2 7 -3 24 -12 37 -15 23 -15 26 4 45 11 11 20 24 20 28 0
22 -30 44 -68 49 l-42 6 0 -87z m75 34 c0 -20 -6 -26 -27 -28 -25 -3 -28 0
-28 28 0 28 3 31 28 28 21 -2 27 -8 27 -28z"/>
<path d="M1566 1188 c-19 -27 -5 -56 35 -71 57 -22 48 -63 -12 -53 -44 7 -54
-10 -13 -20 41 -11 78 7 82 38 3 23 -3 30 -38 48 -51 26 -52 56 -2 54 34 -2
43 10 16 20 -30 11 -53 6 -68 -16z"/>
<path d="M1696 1198 c-3 -7 -3 -26 -2 -43 2 -16 4 -49 4 -72 1 -24 7 -43 12
-43 13 0 13 157 0 165 -6 3 -12 0 -14 -7z"/>
<path d="M1750 1201 c0 -5 10 -11 23 -13 20 -3 22 -9 25 -75 4 -96 22 -94 22
2 0 74 0 75 26 75 14 0 23 4 19 10 -8 13 -115 13 -115 1z"/>
<path d="M1887 1203 c-4 -7 1 -30 13 -52 11 -22 20 -54 20 -70 0 -32 19 -54
21 -24 1 10 1 21 0 26 -1 4 10 30 24 57 14 27 25 54 25 60 0 19 -19 0 -39 -38
l-18 -36 -20 44 c-12 28 -22 40 -26 33z"/>
<path d="M2085 1185 c-49 -48 -18 -145 46 -145 42 0 69 31 69 80 0 46 -34 90
-70 90 -11 0 -32 -11 -45 -25z m77 -12 c35 -32 17 -113 -26 -113 -31 0 -50 24
-50 65 0 58 38 82 76 48z"/>
<path d="M2247 1203 c-11 -11 -8 -163 3 -163 6 0 10 16 10 35 0 32 2 35 30 35
17 0 30 5 30 10 0 6 -13 10 -30 10 -27 0 -30 3 -30 30 0 28 3 30 35 30 19 0
35 5 35 10 0 11 -73 14 -83 3z"/>
<path d="M782 904 c-5 -11 -17 -41 -25 -69 -8 -27 -18 -58 -22 -67 -4 -11 -3
-18 4 -18 6 0 16 11 21 25 7 19 17 25 39 25 22 0 30 -5 35 -25 6 -23 26 -36
26 -17 0 19 -44 138 -55 151 -11 11 -15 10 -23 -5z m32 -61 c6 -19 3 -23 -13
-23 -22 0 -25 10 -14 49 6 25 14 18 27 -26z"/>
<path d="M897 913 c-11 -10 -8 -163 2 -163 6 0 11 14 13 32 3 27 8 32 33 35
75 9 70 84 -6 97 -19 3 -38 3 -42 -1z m67 -29 c9 -8 16 -17 16 -19 0 -11 -34
-35 -51 -35 -15 0 -19 7 -19 35 0 28 4 35 19 35 11 0 27 -7 35 -16z"/>
<path d="M1037 914 c-11 -11 -8 -152 3 -159 9 -6 14 10 13 43 -1 7 11 15 26
18 14 3 33 9 41 13 20 10 25 55 8 68 -17 15 -81 26 -91 17z m67 -20 c27 -10
20 -53 -10 -60 -14 -4 -30 -2 -36 4 -14 14 -1 62 16 62 8 0 21 -3 30 -6z"/>
<path d="M1307 913 c-11 -11 -8 -163 3 -163 12 0 12 2 12 93 0 69 -3 83 -15
70z"/>
<path d="M1383 914 c-9 -4 -13 -31 -13 -85 l0 -79 50 0 c58 0 68 17 13 22 -33
3 -38 6 -38 28 0 21 6 26 35 31 35 6 29 14 -15 21 -12 2 -20 11 -20 23 0 16 8
21 40 25 22 3 36 8 30 11 -14 7 -67 9 -82 3z"/>
<path d="M1516 912 c-3 -3 -6 -41 -6 -84 l0 -78 33 0 c65 0 98 50 77 116 -11
32 -29 44 -77 50 -12 1 -24 0 -27 -4z m76 -35 c12 -19 9 -82 -4 -95 -7 -7 -22
-12 -35 -12 -22 0 -23 4 -23 66 l0 66 27 -7 c15 -3 31 -12 35 -18z"/>
<path d="M1730 900 c-26 -26 -15 -49 36 -79 46 -27 40 -46 -15 -45 -42 1 -54
-9 -25 -20 26 -10 69 -7 82 6 25 25 14 57 -29 78 -50 26 -51 56 -1 52 37 -2
43 13 10 22 -33 9 -36 8 -58 -14z"/>
<path d="M1876 899 c-21 -16 -26 -29 -26 -63 0 -60 23 -88 68 -84 19 2 37 9
40 15 2 9 -5 11 -29 6 -39 -7 -59 14 -59 63 0 44 24 67 61 59 30 -7 41 8 13
19 -26 10 -40 7 -68 -15z"/>
<path d="M2076 913 c-3 -4 -6 -42 -6 -85 l0 -78 50 0 c28 0 50 5 50 10 0 6
-18 10 -40 10 -38 0 -40 2 -40 30 0 27 3 30 30 30 17 0 30 5 30 10 0 6 -14 10
-31 10 -26 0 -30 3 -27 23 2 17 11 23 36 25 17 2 32 7 32 11 0 10 -75 13 -84
4z"/>
<path d="M2210 835 c0 -55 4 -84 10 -80 6 3 10 32 10 63 l0 57 36 -62 c19 -35
39 -63 45 -63 5 0 9 39 9 87 0 96 -17 106 -22 13 l-3 -55 -32 57 c-48 83 -53
82 -53 -17z"/>
<path d="M2390 902 c-13 -10 -23 -33 -27 -57 -9 -67 42 -112 101 -89 29 11 17
23 -17 17 -41 -6 -61 15 -61 64 0 44 26 66 69 58 28 -6 29 -5 11 10 -26 20
-49 19 -76 -3z"/>
<path d="M2520 834 l0 -84 45 0 c25 0 45 5 45 10 0 6 -16 10 -35 10 -32 0 -35
2 -35 30 0 27 3 30 30 30 17 0 30 5 30 10 0 6 -13 10 -30 10 -25 0 -30 4 -30
25 0 22 4 25 37 25 48 0 33 15 -18 16 l-39 2 0 -84z"/>
<path d="M2666 907 c-30 -22 -17 -59 27 -80 54 -25 48 -53 -12 -50 -36 2 -41
0 -31 -13 16 -18 74 -18 90 0 21 27 8 60 -33 79 -49 23 -48 53 1 51 34 -2 43
10 16 20 -24 9 -38 7 -58 -7z"/>
<path d="M1180 830 l0 -80 45 0 c25 0 45 5 45 10 0 6 -16 10 -35 10 l-35 0 0
70 c0 40 -4 70 -10 70 -6 0 -10 -33 -10 -80z"/>
<path d="M2000 830 c0 -47 4 -80 10 -80 6 0 10 33 10 80 0 47 -4 80 -10 80 -6
0 -10 -33 -10 -80z"/>
</g>
</svg>
